<?xml version="1.0" standalone="no"?>
<!DOCTYPE svg PUBLIC "-//W3C//DTD SVG 20010904//EN"
 "http://www.w3.org/TR/2001/REC-SVG-20010904/DTD/svg10.dtd">
<svg version="1.0" xmlns="http://www.w3.org/2000/svg"
 width="500.000000pt" height="500.000000pt" viewBox="0 0 500.000000 500.000000"
 preserveAspectRatio="xMidYMid meet">
<metadata>
Created by potrace 1.10, written by Peter Selinger 2001-2011
</metadata>
<g transform="translate(0.000000,500.000000) scale(0.050000,-0.050000)"
fill="#2aaea8" stroke="none">
<path d="M4427 6269 c-7 -18 -7 -116 0 -219 l14 -186 -77 10 c-62 8 -88 0
-138 -42 -74 -63 -86 -64 -86 -12 0 35 -13 40 -105 40 l-105 0 6 -309 6 -309
90 -13 c116 -18 112 -23 115 199 4 242 51 298 208 245 34 -12 45 -8 45 16 0
17 9 31 20 31 12 0 18 -94 15 -245 l-5 -245 105 -4 105 -3 0 111 0 112 45 -66
c191 -280 695 -172 695 148 0 356 -516 483 -699 173 l-41 -71 2 330 2 330
-102 6 c-80 5 -105 -1 -115 -27z m698 -632 c79 -94 8 -237 -118 -237 -115 0
-182 118 -126 222 45 85 178 93 244 15z"/>
<path d="M2500 5731 l0 -508 265 11 c281 12 378 42 405 126 11 34 23 28 98
-51 101 -106 258 -127 357 -49 61 48 83 51 68 10 -10 -24 9 -30 98 -30 l109 0
0 310 0 310 -110 0 c-89 0 -110 -6 -110 -33 0 -30 -4 -30 -40 3 -105 95 -328
45 -419 -96 -38 -58 -52 -69 -65 -46 -9 16 -48 39 -86 52 l-71 23 59 55 c217
202 38 422 -343 422 l-215 0 0 -509z m385 285 c46 -53 44 -68 -15 -128 -46
-46 -133 -61 -131 -23 1 8 1 60 1 115 0 112 65 128 145 36z m722 -338 c149
-68 98 -278 -67 -278 -138 0 -196 173 -87 259 60 47 85 50 154 19z m-662 -74
c89 -78 29 -183 -115 -199 l-90 -10 0 133 0 132 85 -12 c47 -8 101 -27 120
-44z"/>
<path d="M6180 5858 c-27 -11 -66 -35 -87 -54 -37 -33 -38 -32 -15 11 23 44
22 45 -103 45 l-127 0 -68 -160 c-37 -88 -73 -160 -79 -160 -6 0 -46 72 -90
160 l-78 160 -129 0 -129 0 37 -55 c20 -30 87 -149 150 -265 l113 -210 -98
-195 c-82 -165 -147 -263 -111 -167 6 15 5 34 -2 41 -7 8 -14 29 -14 47 0 54
-80 44 -81 -10 0 -24 -7 -50 -15 -58 -66 -67 17 -124 127 -88 63 21 84 21 108
1 25 -21 37 -21 62 0 23 19 36 20 54 2 68 -68 129 5 106 126 -10 55 9 105 114
303 69 131 143 276 164 323 42 97 68 111 56 30 -11 -76 54 -154 165 -196 60
-23 90 -46 90 -70 0 -55 -59 -64 -147 -20 -44 22 -82 38 -83 35 -1 -2 -17 -28
-36 -58 -70 -112 12 -164 239 -153 318 16 368 309 68 399 -47 14 -90 38 -96
54 -13 33 33 67 75 54 129 -36 136 -35 169 27 41 81 42 78 -44 102 -92 26
-199 25 -265 -1z m-558 -773 c-11 -19 -24 -52 -31 -73 -19 -60 -36 -22 -21 47
7 33 26 61 42 61 21 0 23 -9 10 -35z"/>
<path d="M3120 5010 c0 -73 9 -130 20 -130 11 0 20 57 20 130 0 73 -9 130 -20
130 -11 0 -20 -57 -20 -130z"/>
<path d="M3842 5010 c-3 -106 2 -130 28 -130 26 0 31 24 28 130 -3 86 -12 130
-28 130 -16 0 -25 -44 -28 -130z"/>
<path d="M2887 5075 c7 -25 13 -79 13 -120 0 -53 9 -75 30 -75 22 0 30 22 30
81 0 45 9 99 21 120 18 35 13 39 -43 39 -55 0 -61 -5 -51 -45z"/>
<path d="M3432 5088 c-34 -89 0 -269 35 -183 7 19 15 18 30 -4 33 -48 42 -17
29 105 -12 116 -64 161 -94 82z"/>
<path d="M3604 5083 c-72 -54 -57 -190 21 -199 55 -7 55 -6 55 115 0 131 -6
138 -76 84z"/>
<path d="M4340 5008 c-37 -175 15 -179 57 -4 29 117 29 116 -6 116 -18 0 -36
-39 -51 -112z"/>
<path d="M4448 5088 c7 -17 12 -71 12 -120 0 -65 8 -88 30 -88 22 0 30 23 30
88 0 49 5 103 12 120 9 24 -1 32 -42 32 -41 0 -51 -8 -42 -32z"/>
<path d="M5100 5000 c0 -93 7 -120 30 -120 23 0 30 27 30 120 0 93 -7 120 -30
120 -23 0 -30 -27 -30 -120z"/>
<path d="M3237 5085 c-25 -5 -35 -35 -40 -118 -7 -104 12 -156 40 -113 7 10
29 25 48 32 26 9 35 35 35 101 0 90 -19 113 -83 98z"/>
<path d="M3947 5070 c-36 -26 -35 -29 10 -77 46 -49 46 -50 5 -39 -44 11 -53
-6 -24 -51 23 -37 90 -21 99 24 3 20 -10 54 -30 76 -23 26 -27 38 -9 33 37 -8
51 36 15 50 -16 6 -46 -1 -66 -16z"/>
<path d="M4094 5077 c-43 -24 -45 -143 -4 -177 53 -44 90 -9 90 87 0 94 -27
123 -86 90z"/>
<path d="M4230 5083 c-19 -19 -10 -203 10 -203 11 0 20 36 20 80 0 44 9 80 20
80 11 0 20 12 20 27 0 25 -49 37 -70 16z"/>
<path d="M4693 5087 c-28 -28 -13 -66 22 -54 23 8 19 0 -11 -22 -64 -48 -52
-119 21 -127 66 -8 88 179 23 204 -39 15 -38 15 -55 -1z"/>
<path d="M5912 5085 c-20 -20 -13 -205 8 -205 11 0 20 36 20 80 0 44 9 80 20
80 11 0 20 8 20 18 0 22 -52 43 -68 27z"/>
<path d="M6025 5087 c-31 -13 -33 -80 -3 -98 16 -10 15 -19 -3 -29 -36 -23 -7
-80 41 -80 51 0 74 53 44 101 -17 27 -17 38 2 44 18 7 17 17 -3 42 -29 34 -37
36 -78 20z"/>
<path d="M3000 4980 c0 -76 7 -100 30 -100 21 0 30 22 30 76 0 42 11 87 24
100 19 19 12 24 -30 24 -51 0 -54 -5 -54 -100z"/>
<path d="M3713 5005 c15 -109 22 -125 56 -125 20 0 31 19 31 55 0 30 6 75 13
100 10 39 4 45 -49 45 -60 0 -61 -2 -51 -75z"/>
<path d="M4560 4980 c0 -76 7 -100 30 -100 21 0 30 21 30 68 0 38 5 83 12 100
9 23 0 32 -30 32 -37 0 -42 -12 -42 -100z"/>
<path d="M4822 4995 c9 -47 17 -92 17 -100 3 -44 58 -6 69 48 23 116 -7 207
-34 102 -9 -33 -9 -33 -12 0 -1 19 -14 35 -29 35 -22 0 -24 -18 -11 -85z"/>
<path d="M4952 5048 c-21 -55 -13 -122 18 -148 37 -31 90 -12 90 32 0 20 -11
28 -30 21 -16 -7 -30 -3 -30 8 0 10 14 19 30 19 19 0 30 19 30 50 0 58 -87 73
-108 18z"/>
<path d="M5744 4985 c10 -152 116 -158 116 -6 0 122 -35 135 -45 16 l-8 -85
-4 85 c-2 62 -11 85 -34 85 -25 0 -30 -20 -25 -95z"/>
</g>
</svg>
